<svg width="24" height="24" viewBox="0 0 24 24" fill="none" xmlns="http://www.w3.org/2000/svg">
<path d="M20.5 11H22V13H20.5C20.05 17.17 17.17 20.05 13 20.5V22H11V20.5C6.83 20.05 3.95 17.17 3.5 13H2V11H3.5C3.95 6.83 6.83 3.95 11 3.5V2H13V3.5C17.17 3.95 20.05 6.83 20.5 11ZM4.5 11H6L5 13H4.5C4.71252 14.4975 5.97567 15.8854 7.04515 16.9549C8.11462 18.0243 9.50254 19.2875 11 19.5V19L13 18V19.5C14.4975 19.2875 15.8854 18.0243 16.9549 16.9549C18.0243 15.8854 19.2875 14.4975 19.5 13H19L18 11H19.5C19.2875 9.50254 18.0243 8.11462 16.9549 7.04515C15.8854 5.97567 14.4975 4.71252 13 4.5V5L11 6V4.5C9.50254 4.71252 8.11462 5.97567 7.04515 7.04515C5.97567 8.11462 4.71252 9.50254 4.5 11ZM15 16H9V15C9 13.67 10.67 13.5 12 13.5C13.33 13.5 15 13.67 15 15V16ZM12 8C12.5304 8 13.0391 8.21071 13.4142 8.58579C13.7893 8.96086 14 9.46957 14 10C14 10.5304 13.7893 11.0391 13.4142 11.4142C13.0391 11.7893 12.5304 12 12 12C11.4696 12 10.9609 11.7893 10.5858 11.4142C10.2107 11.0391 10 10.5304 10 10C10 9.46957 10.2107 8.96086 10.5858 8.58579C10.9609 8.21071 11.4696 8 12 8Z" fill="white"/>
</svg>
