<svg width="24" height="24" viewBox="0 0 24 24" fill="none" xmlns="http://www.w3.org/2000/svg">
<path d="M8.11 19.45C7.00432 19.0428 6.02036 18.361 5.25066 17.4689C4.48096 16.5767 3.95079 15.5034 3.71 14.35L2.05 6.54001C1.81 5.46001 2.5 4.40001 3.58 4.17001L13.35 2.10001L13.38 2.09001C14.45 1.88001 15.5 2.57001 15.72 3.63001L16.07 5.30001L20.42 6.23001H20.45C21.5 6.47001 22.18 7.53001 21.96 8.59001L20.3 16.41C20.1084 17.3083 19.7417 18.1601 19.2209 18.9166C18.7 19.6732 18.0352 20.3198 17.2645 20.8194C16.4937 21.319 15.6321 21.6618 14.7288 21.8284C13.8255 21.9949 12.8983 21.9819 12 21.79C10.4762 21.472 9.105 20.6472 8.11 19.45ZM20 8.18001L10.23 6.10001L8.57 13.92V13.95C8 16.63 9.73 19.27 12.42 19.84C15.11 20.41 17.77 18.69 18.34 16L20 8.18001ZM16 16.5C15.6841 17.0348 15.208 17.4568 14.6392 17.7062C14.0703 17.9557 13.4374 18.02 12.83 17.89C12.2245 17.7604 11.6745 17.4451 11.2568 16.9879C10.8392 16.5308 10.5746 15.9547 10.5 15.34L16 16.5ZM8.47 5.17001L4 6.13001L5.66 13.94L5.67 13.97C5.82 14.68 6.12 15.32 6.53 15.87C6.43 15.1 6.45 14.3 6.62 13.5L7.05 11.5C6.6 11.42 6.21 11.17 6 10.81C6.06 10.2 6.56 9.66001 7.25 9.50001H7.5L8.28 5.69001C8.32 5.50001 8.38 5.33001 8.47 5.17001ZM15.03 12.23C15.35 11.7 16.03 11.42 16.72 11.57C17.41 11.71 17.91 12.24 18 12.86C17.67 13.38 17 13.66 16.3 13.5C15.61 13.37 15.11 12.84 15.03 12.23ZM10.15 11.19C10.47 10.66 11.14 10.38 11.83 10.53C12.5 10.67 13.03 11.21 13.11 11.82C12.78 12.34 12.11 12.63 11.42 12.5C10.73 12.33 10.23 11.8 10.15 11.19ZM11.97 4.43001L13.93 4.85001L13.77 4.05001L11.97 4.43001Z" fill="white"/>
</svg>
