<svg width="24" height="24" viewBox="0 0 24 24" fill="none" xmlns="http://www.w3.org/2000/svg">
<g clip-path="url(#clip0_1735_5)">
<path d="M20 8V6C20 4.9 19.1 4 18 4H15C15 2.34 13.66 3.00002 12 3.00002C10.34 3.00002 9 2.34 9 4H6C4.9 4 4 4.9 4 6V8C2.34 8 2 9.34 2 11C2 12.66 2.34 14 4 14V18C4 19.1 4.9 20 6 20H18C19.1 20 20 19.1 20 18V14C21.66 14 22 12.66 22 11C22 9.34 21.66 8 20 8ZM19 19H5V12.5V5H12H19V12V19ZM9 12.5C8.17 12.5 7.5 11.33 7.5 10.5C7.5 9.67 8.17 9 9 9C9.83 9 10.5 9.67 10.5 10.5C10.5 11.33 9.83 12.5 9 12.5ZM16.5 10.5C16.5 11.33 15.83 12.5 15 12.5C14.17 12.5 13.5 11.33 13.5 10.5C13.5 9.67 14.17 9 15 9C15.83 9 16.5 9.67 16.5 10.5ZM8 14L12 13.5L16 14V16L12 15L8 16V14Z" fill="white"/>
</g>
<defs>
<clipPath id="clip0_1735_5">
<rect width="24" height="24" fill="white"/>
</clipPath>
</defs>
</svg>
