<svg width="24" height="24" viewBox="0 0 24 24" fill="none" xmlns="http://www.w3.org/2000/svg">
<path d="M3 10.412H21M5 10.223L5.614 7.62299C6.159 5.31299 6.432 4.15699 7.246 3.48399C7.791 3.03399 8.056 3.55699 8.847 3.95199C9.851 4.45399 11.024 4.05499 12.033 3.56199C13.041 3.06799 15.006 2.80699 16.069 3.16899C17.045 3.50299 17.052 3.93099 17.46 4.87899C18.193 6.58199 18.574 8.41899 19 10.223M10 16.294L10.658 15.945C11.071 15.7246 11.5319 15.6093 12 15.6093C12.4681 15.6093 12.929 15.7246 13.342 15.945L14 16.294M21 17.5C21 18.4282 20.6313 19.3185 19.9749 19.9749C19.3185 20.6312 18.4283 21 17.5 21C16.5717 21 15.6815 20.6312 15.0251 19.9749C14.3687 19.3185 14 18.4282 14 17.5C14 16.5717 14.3687 15.6815 15.0251 15.0251C15.6815 14.3687 16.5717 14 17.5 14C18.4283 14 19.3185 14.3687 19.9749 15.0251C20.6313 15.6815 21 16.5717 21 17.5ZM10 17.5C10 17.9596 9.90947 18.4147 9.73358 18.8394C9.55769 19.264 9.29988 19.6499 8.97487 19.9749C8.64987 20.2999 8.26403 20.5577 7.83939 20.7336C7.41475 20.9095 6.95963 21 6.5 21C6.04037 21 5.58525 20.9095 5.16061 20.7336C4.73597 20.5577 4.35013 20.2999 4.02513 19.9749C3.70012 19.6499 3.44231 19.264 3.26642 18.8394C3.09053 18.4147 3 17.9596 3 17.5C3 16.5717 3.36875 15.6815 4.02513 15.0251C4.6815 14.3687 5.57174 14 6.5 14C7.42826 14 8.3185 14.3687 8.97487 15.0251C9.63125 15.6815 10 16.5717 10 17.5Z" stroke="white" stroke-width="1.5" stroke-linecap="round" stroke-linejoin="round"/>
</svg>
