<svg width="24" height="24" viewBox="0 0 24 24" fill="none" xmlns="http://www.w3.org/2000/svg">
<path d="M16.9776 11L15.9816 10.9102C15.9564 11.1899 16.05 11.4673 16.2394 11.6746C16.4289 11.8819 16.6967 12 16.9776 12V11ZM8.97071 18.9999L8.97785 17.9999H8.97071V18.9999ZM6 10.5142L6.19893 11.4942C6.66596 11.3994 7.0012 10.9882 7 10.5117L6 10.5142ZM17.9735 11.0898C17.9911 10.8953 18 10.6985 18 10.5H16C16 10.6385 15.9938 10.7754 15.9816 10.9102L17.9735 11.0898ZM17 10H16.9776V12H17V10ZM22 15C22 12.2386 19.7614 10 17 10V12C18.6568 12 20 13.3431 20 15H22ZM17 20C19.7614 20 22 17.7614 22 15H20C20 16.6569 18.6568 18 17 18V20ZM8.99998 20H17V18H8.99998V20ZM8.96357 19.9999C8.97567 20 8.98781 20 8.99998 20V18C8.99263 18 8.98525 18 8.97785 17.9999L8.96357 19.9999ZM8.97071 17.9999H6.85713V19.9999H8.97071V17.9999ZM6.85713 17.9999C5.04248 17.9999 3.57141 16.5288 3.57141 14.7142H1.57141C1.57141 17.6334 3.93791 19.9999 6.85713 19.9999V17.9999ZM3.57141 14.7142C3.57141 13.1257 4.69958 11.7986 6.19893 11.4942L5.80108 9.53418C3.38799 10.024 1.57141 12.1558 1.57141 14.7142H3.57141ZM4.99998 10.5C4.99998 10.5056 4.99999 10.5111 5.00001 10.5167L7 10.5117C6.99999 10.5078 6.99998 10.5039 6.99998 10.5H4.99998ZM11.5 4C7.91013 4 4.99998 6.91015 4.99998 10.5H6.99998C6.99998 8.01472 9.0147 6 11.5 6V4ZM18 10.5C18 6.91015 15.0898 4 11.5 4V6C13.9853 6 16 8.01472 16 10.5H18Z" fill="white"/>
</svg>
