<svg width="12" height="11" viewBox="0 0 12 11" fill="none" xmlns="http://www.w3.org/2000/svg">
<path d="M11.1675 0.520363C10.8587 0.211613 10.36 0.211613 10.0512 0.520363L6.18 4.3837L2.30875 0.512446C2 0.203696 1.50125 0.203696 1.1925 0.512446C0.88375 0.821196 0.88375 1.31995 1.1925 1.6287L5.06375 5.49995L1.1925 9.3712C0.88375 9.67995 0.88375 10.1787 1.1925 10.4874C1.50125 10.7962 2 10.7962 2.30875 10.4874L6.18 6.6162L10.0512 10.4874C10.36 10.7962 10.8587 10.7962 11.1675 10.4874C11.4762 10.1787 11.4762 9.67995 11.1675 9.3712L7.29625 5.49995L11.1675 1.6287C11.4683 1.32786 11.4683 0.821196 11.1675 0.520363Z" fill="#76808C"/>
</svg>
