<svg width="24" height="24" viewBox="0 0 24 24" fill="none" xmlns="http://www.w3.org/2000/svg">
<path d="M6.07179 6.26794L6.32179 5.83493L6.32179 5.83493L6.07179 6.26794ZM4.70577 6.63397L4.27275 6.38397L4.27275 6.38397L4.70577 6.63397ZM3.70577 8.36602L3.27275 8.11602L3.27275 8.11602L3.70577 8.36602ZM4.07179 9.73204L4.32179 9.29903L4.32179 9.29903L4.07179 9.73204ZM4.07179 14.2679L4.32179 14.701L4.32179 14.701L4.07179 14.2679ZM3.70577 15.634L4.13878 15.384L4.13878 15.384L3.70577 15.634ZM4.70577 17.366L4.27275 17.616L4.27275 17.616L4.70577 17.366ZM6.07179 17.732L5.82179 17.299L5.82179 17.299L6.07179 17.732ZM17.9282 17.732L17.6782 18.1651L17.6782 18.1651L17.9282 17.732ZM19.2942 17.366L18.8612 17.116L18.8612 17.116L19.2942 17.366ZM20.2942 15.634L20.7272 15.884L20.7272 15.884L20.2942 15.634ZM19.9282 14.2679L19.6782 14.701L19.6782 14.701L19.9282 14.2679ZM19.9282 9.73205L20.1782 10.1651L20.1782 10.1651L19.9282 9.73205ZM20.2942 8.36602L19.8612 8.61602L19.8612 8.61602L20.2942 8.36602ZM19.2942 6.63397L18.8612 6.88397L18.8612 6.88397L19.2942 6.63397ZM17.9282 6.26794L18.1782 6.70096L18.1782 6.70096L17.9282 6.26794ZM14.6512 6.61604L14.43 7.06443L14.6512 6.61604ZM16.5118 7.08573L16.7618 7.51874L16.5118 7.08573ZM15.3358 7.01204L15.0575 7.42741L15.3358 7.01204ZM17.9871 11.6035L17.4882 11.6361L17.9871 11.6035ZM18.5116 10.5499L18.2616 10.1169L18.5116 10.5499ZM15.3358 16.988L15.0575 16.5726L15.3358 16.988ZM16.5118 16.9143L16.2618 17.3473L16.5118 16.9143ZM18.5116 13.4501L18.2616 13.8831L18.5116 13.4501ZM9.34876 17.384L9.56999 16.9356L9.34876 17.384ZM8.66415 16.988L8.38581 17.4033L8.66415 16.988ZM14.6512 17.384L14.8725 17.8324L14.6512 17.384ZM5.48837 10.5499L5.23837 10.9829L5.48837 10.5499ZM7.48824 7.08573L7.23824 7.51874L7.48824 7.08573ZM10.5 4C10.5 3.72386 10.7239 3.5 11 3.5V2.5C10.1716 2.5 9.5 3.17157 9.5 4H10.5ZM10.5 5.63424V4H9.5V5.63424H10.5ZM8.9425 7.42741C9.1428 7.29318 9.35236 7.17181 9.56999 7.06443L9.12754 6.16764C8.87017 6.29462 8.62247 6.4381 8.38582 6.59668L8.9425 7.42741ZM5.82179 6.70096L7.23824 7.51874L7.73824 6.65272L6.32179 5.83493L5.82179 6.70096ZM5.13878 6.88397C5.27685 6.64482 5.58265 6.56289 5.82179 6.70096L6.32179 5.83493C5.60435 5.42072 4.68697 5.66653 4.27275 6.38397L5.13878 6.88397ZM4.13878 8.61602L5.13878 6.88397L4.27275 6.38397L3.27275 8.11602L4.13878 8.61602ZM4.32179 9.29903C4.08265 9.16096 4.00071 8.85517 4.13878 8.61602L3.27275 8.11602C2.85854 8.83346 3.10435 9.75084 3.82179 10.1651L4.32179 9.29903ZM5.73837 10.1169L4.32179 9.29903L3.82179 10.1651L5.23837 10.9829L5.73837 10.1169ZM6.5 12C6.5 11.8777 6.50398 11.7563 6.51183 11.6361L5.51395 11.571C5.50469 11.7129 5.5 11.8559 5.5 12H6.5ZM6.51183 12.3639C6.50398 12.2437 6.5 12.1223 6.5 12H5.5C5.5 12.1441 5.50469 12.2871 5.51395 12.429L6.51183 12.3639ZM4.32179 14.701L5.73837 13.8831L5.23837 13.0171L3.82179 13.8349L4.32179 14.701ZM4.13878 15.384C4.00071 15.1448 4.08265 14.839 4.32179 14.701L3.82179 13.8349C3.10435 14.2491 2.85854 15.1665 3.27275 15.884L4.13878 15.384ZM5.13878 17.116L4.13878 15.384L3.27275 15.884L4.27275 17.616L5.13878 17.116ZM5.82179 17.299C5.58265 17.4371 5.27685 17.3552 5.13878 17.116L4.27275 17.616C4.68697 18.3335 5.60435 18.5793 6.32179 18.1651L5.82179 17.299ZM7.23823 16.4813L5.82179 17.299L6.32179 18.1651L7.73823 17.3473L7.23823 16.4813ZM9.56999 16.9356C9.35236 16.8282 9.1428 16.7068 8.94249 16.5726L8.38581 17.4033C8.62246 17.5619 8.87016 17.7054 9.12754 17.8324L9.56999 16.9356ZM10.5 20V18.3658H9.5V20H10.5ZM11 20.5C10.7239 20.5 10.5 20.2761 10.5 20H9.5C9.5 20.8284 10.1716 21.5 11 21.5V20.5ZM13 20.5H11V21.5H13V20.5ZM13.5 20C13.5 20.2761 13.2761 20.5 13 20.5V21.5C13.8284 21.5 14.5 20.8284 14.5 20H13.5ZM13.5 18.3658V20H14.5V18.3658H13.5ZM15.0575 16.5726C14.8572 16.7068 14.6476 16.8282 14.43 16.9356L14.8725 17.8324C15.1298 17.7054 15.3775 17.5619 15.6142 17.4033L15.0575 16.5726ZM18.1782 17.299L16.7618 16.4813L16.2618 17.3473L17.6782 18.1651L18.1782 17.299ZM18.8612 17.116C18.7231 17.3552 18.4173 17.4371 18.1782 17.299L17.6782 18.1651C18.3956 18.5793 19.313 18.3335 19.7272 17.616L18.8612 17.116ZM19.8612 15.384L18.8612 17.116L19.7272 17.616L20.7272 15.884L19.8612 15.384ZM19.6782 14.701C19.9173 14.839 19.9993 15.1448 19.8612 15.384L20.7272 15.884C21.1414 15.1665 20.8956 14.2491 20.1782 13.8349L19.6782 14.701ZM18.2616 13.8831L19.6782 14.701L20.1782 13.8349L18.7616 13.0171L18.2616 13.8831ZM17.5 12C17.5 12.1223 17.496 12.2437 17.4882 12.3639L18.486 12.429C18.4953 12.2871 18.5 12.1441 18.5 12H17.5ZM17.4882 11.6361C17.496 11.7563 17.5 11.8777 17.5 12H18.5C18.5 11.8559 18.4953 11.7129 18.486 11.571L17.4882 11.6361ZM19.6782 9.29903L18.2616 10.1169L18.7616 10.9829L20.1782 10.1651L19.6782 9.29903ZM19.8612 8.61602C19.9993 8.85517 19.9173 9.16096 19.6782 9.29903L20.1782 10.1651C20.8956 9.75085 21.1415 8.83346 20.7272 8.11602L19.8612 8.61602ZM18.8612 6.88397L19.8612 8.61602L20.7272 8.11602L19.7272 6.38397L18.8612 6.88397ZM18.1782 6.70096C18.4173 6.56289 18.7231 6.64482 18.8612 6.88397L19.7272 6.38397C19.313 5.66653 18.3956 5.42072 17.6782 5.83493L18.1782 6.70096ZM16.7618 7.51874L18.1782 6.70096L17.6782 5.83493L16.2618 6.65272L16.7618 7.51874ZM14.43 7.06443C14.6476 7.17181 14.8572 7.29318 15.0575 7.42741L15.6142 6.59668C15.3775 6.4381 15.1298 6.29462 14.8725 6.16764L14.43 7.06443ZM13.5 4V5.63423H14.5V4H13.5ZM13 3.5C13.2761 3.5 13.5 3.72386 13.5 4H14.5C14.5 3.17157 13.8284 2.5 13 2.5V3.5ZM11 3.5H13V2.5H11V3.5ZM14.8725 6.16764C14.6322 6.04912 14.5 5.83558 14.5 5.63423H13.5C13.5 6.28052 13.9101 6.80792 14.43 7.06443L14.8725 6.16764ZM16.2618 6.65272C16.0873 6.75345 15.8363 6.74556 15.6142 6.59668L15.0575 7.42741C15.5397 7.75054 16.2019 7.84197 16.7618 7.51874L16.2618 6.65272ZM18.486 11.571C18.4687 11.3045 18.5873 11.0836 18.7616 10.9829L18.2616 10.1169C17.7026 10.4396 17.4504 11.0576 17.4882 11.6361L18.486 11.571ZM15.6142 17.4033C15.8364 17.2544 16.0873 17.2465 16.2618 17.3473L16.7618 16.4813C16.2019 16.158 15.5397 16.2495 15.0575 16.5726L15.6142 17.4033ZM18.7616 13.0171C18.5873 12.9164 18.4687 12.6955 18.486 12.429L17.4882 12.3639C17.4504 12.9424 17.7026 13.5603 18.2616 13.8831L18.7616 13.0171ZM9.12754 17.8324C9.36776 17.9509 9.5 18.1644 9.5 18.3658H10.5C10.5 17.7195 10.0899 17.1921 9.56999 16.9356L9.12754 17.8324ZM7.73823 17.3473C7.9127 17.2465 8.16364 17.2544 8.38581 17.4033L8.94249 16.5726C8.46028 16.2495 7.79808 16.158 7.23823 16.4813L7.73823 17.3473ZM14.5 18.3658C14.5 18.1644 14.6322 17.9509 14.8725 17.8324L14.43 16.9356C13.9101 17.1921 13.5 17.7195 13.5 18.3658H14.5ZM5.51395 12.429C5.53133 12.6955 5.41267 12.9164 5.23837 13.0171L5.73837 13.8831C6.29739 13.5603 6.54956 12.9424 6.51183 12.3639L5.51395 12.429ZM5.23837 10.9829C5.41267 11.0836 5.53133 11.3045 5.51395 11.571L6.51183 11.6361C6.54956 11.0576 6.2974 10.4396 5.73837 10.1169L5.23837 10.9829ZM8.38582 6.59668C8.16365 6.74556 7.91271 6.75345 7.73824 6.65272L7.23824 7.51874C7.79808 7.84197 8.46029 7.75054 8.9425 7.42741L8.38582 6.59668ZM9.5 5.63424C9.5 5.83558 9.36776 6.04912 9.12754 6.16764L9.56999 7.06443C10.0899 6.80792 10.5 6.28052 10.5 5.63424H9.5Z" fill="white"/>
<circle cx="12" cy="12" r="3" stroke="white" stroke-linecap="round" stroke-linejoin="round"/>
</svg>
